<svg xmlns="http://www.w3.org/2000/svg" viewBox="0 0 100 100" width="100" height="100" role="img" aria-label="Learnetes logo">
  <defs>
    <linearGradient id="lrn-bg" x1="0" y1="0" x2="0" y2="1">
      <stop offset="0" stop-color="#0b1220"/>
      <stop offset="1" stop-color="#020617"/>
    </linearGradient>
    <linearGradient id="lrn-leaf" x1="0" y1="0" x2="1" y2="1">
      <stop offset="0" stop-color="#6ee7b7"/>
      <stop offset="1" stop-color="#10b981"/>
    </linearGradient>
  </defs>
  <rect x="2" y="2" width="96" height="96" rx="24" fill="url(#lrn-bg)"/>
  <polygon points="50,16 75.8,28.4 82.2,56.34 64.3,78.7 35.7,78.7 17.8,56.34 24.2,28.4"
    fill="none" stroke="#34d399" stroke-width="3.5" stroke-linejoin="round" opacity="0.5"/>
  <path d="M50,24 C64,35 64,55 50,74 C36,55 36,35 50,24 Z" fill="url(#lrn-leaf)"/>
  <path d="M50,30 L50,68" stroke="#020617" stroke-width="2.4" stroke-linecap="round"/>
  <path d="M50,42 L41,47 M50,42 L59,47 M50,53 L43,58 M50,53 L57,58"
    stroke="#020617" stroke-width="2" stroke-linecap="round" fill="none" opacity="0.85"/>
</svg>
